<?xml version="1.0" encoding="UTF-8"?>
<!-- Created with Inkscape (http://www.inkscape.org/) -->
<svg width="44.221mm" height="44.224mm" version="1.1" viewBox="0 0 44.221 44.224" xmlns="http://www.w3.org/2000/svg">
 <g transform="translate(-87.975 -120.15)">
  <path d="m100.25 164.25c-0.9366-0.20341-1.391-0.53909-3.3504-2.475l-1.8186-1.7968-2.1139 2.1152c-1.1627 1.1634-2.1527 2.1152-2.2 2.1152-0.11384 0-2.6382-2.5223-2.6382-2.6361 0-0.0485 0.95186-1.0394 2.1153-2.2021l2.1153-2.1139-1.7968-1.8186c-1.9977-2.022-2.2765-2.4108-2.4944-3.4794-0.1135-0.55654-0.11993-0.78167-0.03774-1.3203 0.19725-1.2928 0.2748-1.3924 4.025-5.1675l3.3719-3.3943-0.88306-0.88608c-0.48568-0.48734-0.88306-0.9248-0.88306-0.97213 0-0.0473 0.58372-0.66879 1.2972-1.381l1.2972-1.295 18.54 18.54-1.295 1.2972c-0.71224 0.71343-1.3337 1.2972-1.381 1.2972-0.0473 0-0.48498-0.39758-0.97257-0.88351l-0.88653-0.8835-3.3506 3.3332c-3.6128 3.594-3.8445 3.7828-4.9232 4.0113-0.71174 0.15081-1.0272 0.1501-1.7364-4e-3zm13.077-17.935-1.2947-1.2969 4.9685-4.9707-4.71-4.71-4.9707 4.9685-1.2969-1.2947c-0.71329-0.7121-1.2969-1.3339-1.2969-1.3817 0-0.0478 1.0986-1.1861 2.4414-2.5295l2.4414-2.4425-4.2327-4.2354 1.2947-1.2968c0.71208-0.71326 1.3334-1.2968 1.3807-1.2968 0.0473 0 0.48479 0.39738 0.97213 0.88306l0.88608 0.88307 3.3943-3.3719c3.7751-3.7502 3.8747-3.8277 5.1675-4.025 0.53867-0.0822 0.7638-0.0758 1.3203 0.0377 1.0686 0.21791 1.4574 0.49668 3.4794 2.4944l1.8186 1.7968 2.1139-2.1153c1.1627-1.1634 2.1536-2.1152 2.2021-2.1152 0.11375 0 2.6361 2.5244 2.6361 2.6382 0 0.0473-0.95186 1.0373-2.1152 2.2l-2.1152 2.1139 1.7968 1.8186c1.9977 2.022 2.2765 2.4108 2.4944 3.4794 0.11349 0.55654 0.11993 0.78167 0.0377 1.3203-0.19726 1.2928-0.27481 1.3923-4.025 5.1675l-3.3719 3.3943 0.88306 0.88608c0.48568 0.48734 0.88306 0.9248 0.88306 0.97212 0 0.0473-0.58358 0.66866-1.2968 1.3807l-1.2968 1.2947-4.2354-4.2327-2.4425 2.4414c-1.3434 1.3428-2.4816 2.4414-2.5295 2.4414-0.0478 0-0.6696-0.58361-1.3817-1.2969z" stroke-width=".086443"/>
 </g>
</svg>
