<?xml version="1.0" encoding="UTF-8"?>
<!-- Created with Inkscape (http://www.inkscape.org/) -->
<svg version="1.1" viewBox="0 0 40.506 40.506" xmlns="http://www.w3.org/2000/svg">
 <g transform="translate(-40.058 -61.837)">
  <g transform="matrix(1.6797 0 0 1.6797 -40.995 -55.799)">
   <g>
    <rect x="50.058" y="81.585" width="20.506" height="8.0176" fill="#f79f32"/>
    <path transform="scale(1,-1)" d="m70.564-82.09a10.253 10.253 0 0 1-5.1265 8.8793 10.253 10.253 0 0 1-10.253 0 10.253 10.253 0 0 1-5.1265-8.8793h10.253z" fill="#f79f32"/>
    <ellipse cx="60.317" cy="89.389" rx="10.113" ry=".87705" fill="#8b5d21"/>
    <ellipse cx="60.311" cy="90.248" rx="6.8908" ry="1.0666" fill="#313132"/>
    <rect x="52.672" y="78.234" width="15.279" height="5.227" ry="1.6083" fill="#313132"/>
    <path d="m57.966 87.384h4.6909l-0.5053-1.9227h-3.6803z" fill="#373738"/>
   </g>
   <path d="m53.007 81.188 1.6111-0.09477 1.232-0.66339 1.7059 2.0849 1.3576-2.3515 1.3972 1.3972 1.3677-1.3677 1.2906 2.2353 1.6109-2.7902 1.5277 1.5277h1.7783" fill="none" stroke="#37abc8" stroke-width=".365"/>
   <path d="m55.364 74.167c0.2799 0.25496-0.80011 1.2207-1.8795 2.5531s-1.7494 2.5269-2.0293 2.272c-0.2799-0.25496 0.33452-1.5002 1.4139-2.8326 1.0794-1.3324 2.215-2.2474 2.4949-1.9925z" fill="#fff" stroke-linecap="round" stroke-width=".29227"/>
  </g>
 </g>
</svg>
